<svg xmlns="http://www.w3.org/2000/svg" viewBox="0 0 680 190" role="img" aria-labelledby="title desc">
  <title id="title">Link168</title>
  <desc id="desc">Link168 网站导航横版 Logo。</desc>
  <defs>
    <linearGradient id="blue" x1="25" y1="24" x2="165" y2="170" gradientUnits="userSpaceOnUse">
      <stop offset="0" stop-color="#12B8FF"/>
      <stop offset="0.52" stop-color="#1677FF"/>
      <stop offset="1" stop-color="#0A4ED7"/>
    </linearGradient>
    <linearGradient id="gold" x1="54" y1="128" x2="170" y2="164" gradientUnits="userSpaceOnUse">
      <stop offset="0" stop-color="#FFE5A8"/>
      <stop offset="0.58" stop-color="#F4BE5F"/>
      <stop offset="1" stop-color="#D9942D"/>
    </linearGradient>
  </defs>
  <path d="M35 154V69c0-20.7 16.8-37.5 37.5-37.5h44c20.7 0 37.5 16.8 37.5 37.5v77c0 20.7-16.8 37.5-37.5 37.5H100" fill="none" stroke="url(#blue)" stroke-width="10" stroke-linecap="round"/>
  <path d="M73 55l39 9v49l-39 11z" fill="url(#blue)"/>
  <path d="M36 157c23-22 55-37 105-45-24 11-40 23-45 36-4 11 2 21 15 28H72c-15-3-26-9-36-19z" fill="url(#gold)"/>
  <g font-family="Inter, Avenir Next, Helvetica Neue, Arial, sans-serif" font-weight="700" font-size="76" letter-spacing="-4">
    <text x="205" y="119" fill="#11213A">Link</text>
    <text x="380" y="119" fill="#D9942D">1</text>
    <text x="421" y="119" fill="url(#blue)">68</text>
  </g>
</svg>
